<mxfile host="app.diagrams.net" modified="2023-12-19T09:28:54.516Z" agent="Mozilla/5.0 (Windows NT 10.0; Win64; x64) AppleWebKit/537.36 (KHTML, like Gecko) Chrome/120.0.0.0 Safari/537.36 Edg/120.0.0.0" etag="OuPnP1boWf8EEzHQBJp5" version="22.1.11" type="device">
  <diagram name="Страница — 1" id="6N8Kv0qwtwaITpmGnXV4">
    <mxGraphModel dx="2716" dy="882" grid="0" gridSize="10" guides="1" tooltips="1" connect="1" arrows="1" fold="1" page="0" pageScale="1" pageWidth="827" pageHeight="1169" math="0" shadow="0">
      <root>
        <mxCell id="0" />
        <mxCell id="1" parent="0" />
        <mxCell id="MjwxIHWWjt4pd9szbJG3-2" value="Furniture" style="swimlane;fontStyle=0;childLayout=stackLayout;horizontal=1;startSize=30;horizontalStack=0;resizeParent=1;resizeParentMax=0;resizeLast=0;collapsible=1;marginBottom=0;whiteSpace=wrap;html=1;" parent="1" vertex="1">
          <mxGeometry x="-31" y="858" width="270" height="180" as="geometry" />
        </mxCell>
        <mxCell id="MjwxIHWWjt4pd9szbJG3-3" value="+&amp;nbsp;productId: int" style="text;strokeColor=none;fillColor=none;align=left;verticalAlign=middle;spacingLeft=4;spacingRight=4;overflow=hidden;points=[[0,0.5],[1,0.5]];portConstraint=eastwest;rotatable=0;whiteSpace=wrap;html=1;" parent="MjwxIHWWjt4pd9szbJG3-2" vertex="1">
          <mxGeometry y="30" width="270" height="30" as="geometry" />
        </mxCell>
        <mxCell id="MjwxIHWWjt4pd9szbJG3-4" value="+ name: string" style="text;strokeColor=none;fillColor=none;align=left;verticalAlign=middle;spacingLeft=4;spacingRight=4;overflow=hidden;points=[[0,0.5],[1,0.5]];portConstraint=eastwest;rotatable=0;whiteSpace=wrap;html=1;" parent="MjwxIHWWjt4pd9szbJG3-2" vertex="1">
          <mxGeometry y="60" width="270" height="30" as="geometry" />
        </mxCell>
        <mxCell id="MjwxIHWWjt4pd9szbJG3-5" value="+&amp;nbsp;price: double" style="text;strokeColor=none;fillColor=none;align=left;verticalAlign=middle;spacingLeft=4;spacingRight=4;overflow=hidden;points=[[0,0.5],[1,0.5]];portConstraint=eastwest;rotatable=0;whiteSpace=wrap;html=1;" parent="MjwxIHWWjt4pd9szbJG3-2" vertex="1">
          <mxGeometry y="90" width="270" height="30" as="geometry" />
        </mxCell>
        <mxCell id="MjwxIHWWjt4pd9szbJG3-127" value="+&amp;nbsp;stockQuantity: int" style="text;strokeColor=none;fillColor=none;align=left;verticalAlign=middle;spacingLeft=4;spacingRight=4;overflow=hidden;points=[[0,0.5],[1,0.5]];portConstraint=eastwest;rotatable=0;whiteSpace=wrap;html=1;" parent="MjwxIHWWjt4pd9szbJG3-2" vertex="1">
          <mxGeometry y="120" width="270" height="30" as="geometry" />
        </mxCell>
        <mxCell id="MjwxIHWWjt4pd9szbJG3-128" value="+&amp;nbsp;description: string" style="text;strokeColor=none;fillColor=none;align=left;verticalAlign=middle;spacingLeft=4;spacingRight=4;overflow=hidden;points=[[0,0.5],[1,0.5]];portConstraint=eastwest;rotatable=0;whiteSpace=wrap;html=1;" parent="MjwxIHWWjt4pd9szbJG3-2" vertex="1">
          <mxGeometry y="150" width="270" height="30" as="geometry" />
        </mxCell>
        <mxCell id="MjwxIHWWjt4pd9szbJG3-9" value="User" style="swimlane;fontStyle=0;childLayout=stackLayout;horizontal=1;startSize=30;horizontalStack=0;resizeParent=1;resizeParentMax=0;resizeLast=0;collapsible=1;marginBottom=0;whiteSpace=wrap;html=1;" parent="1" vertex="1">
          <mxGeometry x="730" y="828" width="260" height="240" as="geometry" />
        </mxCell>
        <mxCell id="MjwxIHWWjt4pd9szbJG3-10" value="+ userID: int" style="text;strokeColor=none;fillColor=none;align=left;verticalAlign=middle;spacingLeft=4;spacingRight=4;overflow=hidden;points=[[0,0.5],[1,0.5]];portConstraint=eastwest;rotatable=0;whiteSpace=wrap;html=1;" parent="MjwxIHWWjt4pd9szbJG3-9" vertex="1">
          <mxGeometry y="30" width="260" height="30" as="geometry" />
        </mxCell>
        <mxCell id="MjwxIHWWjt4pd9szbJG3-11" value="+&amp;nbsp;name: string" style="text;strokeColor=none;fillColor=none;align=left;verticalAlign=middle;spacingLeft=4;spacingRight=4;overflow=hidden;points=[[0,0.5],[1,0.5]];portConstraint=eastwest;rotatable=0;whiteSpace=wrap;html=1;" parent="MjwxIHWWjt4pd9szbJG3-9" vertex="1">
          <mxGeometry y="60" width="260" height="30" as="geometry" />
        </mxCell>
        <mxCell id="MjwxIHWWjt4pd9szbJG3-12" value="+&amp;nbsp;email: string" style="text;strokeColor=none;fillColor=none;align=left;verticalAlign=middle;spacingLeft=4;spacingRight=4;overflow=hidden;points=[[0,0.5],[1,0.5]];portConstraint=eastwest;rotatable=0;whiteSpace=wrap;html=1;" parent="MjwxIHWWjt4pd9szbJG3-9" vertex="1">
          <mxGeometry y="90" width="260" height="30" as="geometry" />
        </mxCell>
        <mxCell id="MjwxIHWWjt4pd9szbJG3-45" value="+ password: string" style="text;strokeColor=none;fillColor=none;align=left;verticalAlign=middle;spacingLeft=4;spacingRight=4;overflow=hidden;points=[[0,0.5],[1,0.5]];portConstraint=eastwest;rotatable=0;whiteSpace=wrap;html=1;" parent="MjwxIHWWjt4pd9szbJG3-9" vertex="1">
          <mxGeometry y="120" width="260" height="30" as="geometry" />
        </mxCell>
        <mxCell id="MjwxIHWWjt4pd9szbJG3-123" value="+ orders: List&amp;lt;Order&amp;gt;" style="text;strokeColor=none;fillColor=none;align=left;verticalAlign=middle;spacingLeft=4;spacingRight=4;overflow=hidden;points=[[0,0.5],[1,0.5]];portConstraint=eastwest;rotatable=0;whiteSpace=wrap;html=1;" parent="MjwxIHWWjt4pd9szbJG3-9" vertex="1">
          <mxGeometry y="150" width="260" height="30" as="geometry" />
        </mxCell>
        <mxCell id="MjwxIHWWjt4pd9szbJG3-125" value="" style="endArrow=none;html=1;rounded=0;exitX=-0.001;exitY=0.997;exitDx=0;exitDy=0;exitPerimeter=0;" parent="MjwxIHWWjt4pd9szbJG3-9" source="MjwxIHWWjt4pd9szbJG3-123" edge="1">
          <mxGeometry width="50" height="50" relative="1" as="geometry">
            <mxPoint x="-4.5" y="115.48000000000002" as="sourcePoint" />
            <mxPoint x="262" y="180" as="targetPoint" />
          </mxGeometry>
        </mxCell>
        <mxCell id="MjwxIHWWjt4pd9szbJG3-126" value="+&amp;nbsp;placeOrder(cart: List &amp;lt;Furniture&amp;gt;):Order" style="text;strokeColor=none;fillColor=none;align=left;verticalAlign=middle;spacingLeft=4;spacingRight=4;overflow=hidden;points=[[0,0.5],[1,0.5]];portConstraint=eastwest;rotatable=0;whiteSpace=wrap;html=1;" parent="MjwxIHWWjt4pd9szbJG3-9" vertex="1">
          <mxGeometry y="180" width="260" height="30" as="geometry" />
        </mxCell>
        <mxCell id="MjwxIHWWjt4pd9szbJG3-124" value="+&amp;nbsp;viewOrders(): List&amp;lt;Order&amp;gt;" style="text;strokeColor=none;fillColor=none;align=left;verticalAlign=middle;spacingLeft=4;spacingRight=4;overflow=hidden;points=[[0,0.5],[1,0.5]];portConstraint=eastwest;rotatable=0;whiteSpace=wrap;html=1;" parent="MjwxIHWWjt4pd9szbJG3-9" vertex="1">
          <mxGeometry y="210" width="260" height="30" as="geometry" />
        </mxCell>
        <mxCell id="MjwxIHWWjt4pd9szbJG3-28" value="Order" style="swimlane;fontStyle=0;childLayout=stackLayout;horizontal=1;startSize=30;horizontalStack=0;resizeParent=1;resizeParentMax=0;resizeLast=0;collapsible=1;marginBottom=0;whiteSpace=wrap;html=1;" parent="1" vertex="1">
          <mxGeometry x="358" y="798" width="210.5" height="299" as="geometry" />
        </mxCell>
        <mxCell id="MjwxIHWWjt4pd9szbJG3-29" value="+ orderId: int" style="text;strokeColor=none;fillColor=none;align=left;verticalAlign=middle;spacingLeft=4;spacingRight=4;overflow=hidden;points=[[0,0.5],[1,0.5]];portConstraint=eastwest;rotatable=0;whiteSpace=wrap;html=1;" parent="MjwxIHWWjt4pd9szbJG3-28" vertex="1">
          <mxGeometry y="30" width="210.5" height="30" as="geometry" />
        </mxCell>
        <mxCell id="MjwxIHWWjt4pd9szbJG3-30" value="+ items: List &amp;lt;Furniture&amp;gt;" style="text;strokeColor=none;fillColor=none;align=left;verticalAlign=middle;spacingLeft=4;spacingRight=4;overflow=hidden;points=[[0,0.5],[1,0.5]];portConstraint=eastwest;rotatable=0;whiteSpace=wrap;html=1;" parent="MjwxIHWWjt4pd9szbJG3-28" vertex="1">
          <mxGeometry y="60" width="210.5" height="30" as="geometry" />
        </mxCell>
        <mxCell id="MjwxIHWWjt4pd9szbJG3-31" value="+ clientId: int" style="text;strokeColor=none;fillColor=none;align=left;verticalAlign=middle;spacingLeft=4;spacingRight=4;overflow=hidden;points=[[0,0.5],[1,0.5]];portConstraint=eastwest;rotatable=0;whiteSpace=wrap;html=1;" parent="MjwxIHWWjt4pd9szbJG3-28" vertex="1">
          <mxGeometry y="90" width="210.5" height="30" as="geometry" />
        </mxCell>
        <mxCell id="MjwxIHWWjt4pd9szbJG3-46" value="+ totalAmount: double" style="text;strokeColor=none;fillColor=none;align=left;verticalAlign=middle;spacingLeft=4;spacingRight=4;overflow=hidden;points=[[0,0.5],[1,0.5]];portConstraint=eastwest;rotatable=0;whiteSpace=wrap;html=1;" parent="MjwxIHWWjt4pd9szbJG3-28" vertex="1">
          <mxGeometry y="120" width="210.5" height="29" as="geometry" />
        </mxCell>
        <mxCell id="MjwxIHWWjt4pd9szbJG3-103" value="+ orderDate: date" style="text;strokeColor=none;fillColor=none;align=left;verticalAlign=middle;spacingLeft=4;spacingRight=4;overflow=hidden;points=[[0,0.5],[1,0.5]];portConstraint=eastwest;rotatable=0;whiteSpace=wrap;html=1;" parent="MjwxIHWWjt4pd9szbJG3-28" vertex="1">
          <mxGeometry y="149" width="210.5" height="30" as="geometry" />
        </mxCell>
        <mxCell id="MjwxIHWWjt4pd9szbJG3-104" value="+ status: string" style="text;strokeColor=none;fillColor=none;align=left;verticalAlign=middle;spacingLeft=4;spacingRight=4;overflow=hidden;points=[[0,0.5],[1,0.5]];portConstraint=eastwest;rotatable=0;whiteSpace=wrap;html=1;" parent="MjwxIHWWjt4pd9szbJG3-28" vertex="1">
          <mxGeometry y="179" width="210.5" height="30" as="geometry" />
        </mxCell>
        <mxCell id="MjwxIHWWjt4pd9szbJG3-105" value="+&amp;nbsp;getTotalPrice(): double" style="text;strokeColor=none;fillColor=none;align=left;verticalAlign=middle;spacingLeft=4;spacingRight=4;overflow=hidden;points=[[0,0.5],[1,0.5]];portConstraint=eastwest;rotatable=0;whiteSpace=wrap;html=1;" parent="MjwxIHWWjt4pd9szbJG3-28" vertex="1">
          <mxGeometry y="209" width="210.5" height="30" as="geometry" />
        </mxCell>
        <mxCell id="MjwxIHWWjt4pd9szbJG3-106" value="+&amp;nbsp;addItem(furniture: Furniture)" style="text;strokeColor=none;fillColor=none;align=left;verticalAlign=middle;spacingLeft=4;spacingRight=4;overflow=hidden;points=[[0,0.5],[1,0.5]];portConstraint=eastwest;rotatable=0;whiteSpace=wrap;html=1;" parent="MjwxIHWWjt4pd9szbJG3-28" vertex="1">
          <mxGeometry y="239" width="210.5" height="30" as="geometry" />
        </mxCell>
        <mxCell id="MjwxIHWWjt4pd9szbJG3-107" value="+&amp;nbsp;removeItem(furniture: Furniture)" style="text;strokeColor=none;fillColor=none;align=left;verticalAlign=middle;spacingLeft=4;spacingRight=4;overflow=hidden;points=[[0,0.5],[1,0.5]];portConstraint=eastwest;rotatable=0;whiteSpace=wrap;html=1;" parent="MjwxIHWWjt4pd9szbJG3-28" vertex="1">
          <mxGeometry y="269" width="210.5" height="30" as="geometry" />
        </mxCell>
        <mxCell id="MjwxIHWWjt4pd9szbJG3-109" value="" style="endArrow=none;html=1;rounded=0;entryX=1.006;entryY=-0.097;entryDx=0;entryDy=0;entryPerimeter=0;exitX=0.002;exitY=-0.108;exitDx=0;exitDy=0;exitPerimeter=0;" parent="MjwxIHWWjt4pd9szbJG3-28" source="MjwxIHWWjt4pd9szbJG3-105" target="MjwxIHWWjt4pd9szbJG3-105" edge="1">
          <mxGeometry width="50" height="50" relative="1" as="geometry">
            <mxPoint x="-6.5" y="211" as="sourcePoint" />
            <mxPoint x="168.5" y="152" as="targetPoint" />
          </mxGeometry>
        </mxCell>
        <mxCell id="MjwxIHWWjt4pd9szbJG3-53" style="edgeStyle=orthogonalEdgeStyle;rounded=0;orthogonalLoop=1;jettySize=auto;html=1;entryX=1;entryY=0.5;entryDx=0;entryDy=0;startArrow=classic;startFill=1;endArrow=none;endFill=0;exitX=0;exitY=0.5;exitDx=0;exitDy=0;" parent="1" source="MjwxIHWWjt4pd9szbJG3-11" target="MjwxIHWWjt4pd9szbJG3-31" edge="1">
          <mxGeometry relative="1" as="geometry">
            <Array as="points">
              <mxPoint x="717" y="903" />
            </Array>
            <mxPoint x="710" y="903.0000000000002" as="sourcePoint" />
            <mxPoint x="628.0000000000002" y="904" as="targetPoint" />
          </mxGeometry>
        </mxCell>
        <mxCell id="MjwxIHWWjt4pd9szbJG3-67" style="edgeStyle=orthogonalEdgeStyle;rounded=0;orthogonalLoop=1;jettySize=auto;html=1;entryX=0;entryY=0.5;entryDx=0;entryDy=0;exitX=1;exitY=0.5;exitDx=0;exitDy=0;startArrow=classic;startFill=1;endArrow=none;endFill=0;" parent="1" source="MjwxIHWWjt4pd9szbJG3-4" target="MjwxIHWWjt4pd9szbJG3-46" edge="1">
          <mxGeometry relative="1" as="geometry">
            <Array as="points" />
            <mxPoint x="275" y="903" as="sourcePoint" />
            <mxPoint x="365" y="904" as="targetPoint" />
          </mxGeometry>
        </mxCell>
        <mxCell id="MjwxIHWWjt4pd9szbJG3-68" value="&lt;b&gt;1&lt;/b&gt;" style="text;html=1;align=center;verticalAlign=middle;resizable=0;points=[];autosize=1;strokeColor=none;fillColor=none;" parent="1" vertex="1">
          <mxGeometry x="680" y="873" width="30" height="30" as="geometry" />
        </mxCell>
        <mxCell id="MjwxIHWWjt4pd9szbJG3-70" value="&lt;b&gt;...&lt;/b&gt;" style="text;html=1;align=center;verticalAlign=middle;resizable=0;points=[];autosize=1;strokeColor=none;fillColor=none;" parent="1" vertex="1">
          <mxGeometry x="330" y="903" width="28" height="26" as="geometry" />
        </mxCell>
        <mxCell id="MjwxIHWWjt4pd9szbJG3-71" value="&lt;b&gt;1&lt;/b&gt;" style="text;html=1;align=center;verticalAlign=middle;resizable=0;points=[];autosize=1;strokeColor=none;fillColor=none;" parent="1" vertex="1">
          <mxGeometry x="246" y="903" width="30" height="30" as="geometry" />
        </mxCell>
        <mxCell id="MjwxIHWWjt4pd9szbJG3-130" style="rounded=0;orthogonalLoop=1;jettySize=auto;html=1;entryX=0.435;entryY=1.029;entryDx=0;entryDy=0;entryPerimeter=0;exitX=0.5;exitY=0;exitDx=0;exitDy=0;" parent="1" source="MjwxIHWWjt4pd9szbJG3-72" target="MjwxIHWWjt4pd9szbJG3-107" edge="1">
          <mxGeometry relative="1" as="geometry">
            <mxPoint x="449.14649999999995" y="1110" as="targetPoint" />
            <mxPoint x="446.4999999999999" y="1270.35" as="sourcePoint" />
          </mxGeometry>
        </mxCell>
        <mxCell id="MjwxIHWWjt4pd9szbJG3-72" value="Manager" style="swimlane;fontStyle=0;childLayout=stackLayout;horizontal=1;startSize=30;horizontalStack=0;resizeParent=1;resizeParentMax=0;resizeLast=0;collapsible=1;marginBottom=0;whiteSpace=wrap;html=1;" parent="1" vertex="1">
          <mxGeometry x="318" y="1201" width="263" height="300" as="geometry" />
        </mxCell>
        <mxCell id="MjwxIHWWjt4pd9szbJG3-73" value="+ managerId: int" style="text;strokeColor=none;fillColor=none;align=left;verticalAlign=middle;spacingLeft=4;spacingRight=4;overflow=hidden;points=[[0,0.5],[1,0.5]];portConstraint=eastwest;rotatable=0;whiteSpace=wrap;html=1;" parent="MjwxIHWWjt4pd9szbJG3-72" vertex="1">
          <mxGeometry y="30" width="263" height="30" as="geometry" />
        </mxCell>
        <mxCell id="MjwxIHWWjt4pd9szbJG3-74" value="+&amp;nbsp;name: string" style="text;strokeColor=none;fillColor=none;align=left;verticalAlign=middle;spacingLeft=4;spacingRight=4;overflow=hidden;points=[[0,0.5],[1,0.5]];portConstraint=eastwest;rotatable=0;whiteSpace=wrap;html=1;" parent="MjwxIHWWjt4pd9szbJG3-72" vertex="1">
          <mxGeometry y="60" width="263" height="30" as="geometry" />
        </mxCell>
        <mxCell id="MjwxIHWWjt4pd9szbJG3-75" value="+&amp;nbsp;email: string" style="text;strokeColor=none;fillColor=none;align=left;verticalAlign=middle;spacingLeft=4;spacingRight=4;overflow=hidden;points=[[0,0.5],[1,0.5]];portConstraint=eastwest;rotatable=0;whiteSpace=wrap;html=1;" parent="MjwxIHWWjt4pd9szbJG3-72" vertex="1">
          <mxGeometry y="90" width="263" height="30" as="geometry" />
        </mxCell>
        <mxCell id="MjwxIHWWjt4pd9szbJG3-110" value="+&amp;nbsp;password: string" style="text;strokeColor=none;fillColor=none;align=left;verticalAlign=middle;spacingLeft=4;spacingRight=4;overflow=hidden;points=[[0,0.5],[1,0.5]];portConstraint=eastwest;rotatable=0;whiteSpace=wrap;html=1;" parent="MjwxIHWWjt4pd9szbJG3-72" vertex="1">
          <mxGeometry y="120" width="263" height="30" as="geometry" />
        </mxCell>
        <mxCell id="MjwxIHWWjt4pd9szbJG3-116" value="+&amp;nbsp;viewOrders(): List &amp;lt;Order&amp;gt;" style="text;strokeColor=none;fillColor=none;align=left;verticalAlign=middle;spacingLeft=4;spacingRight=4;overflow=hidden;points=[[0,0.5],[1,0.5]];portConstraint=eastwest;rotatable=0;whiteSpace=wrap;html=1;" parent="MjwxIHWWjt4pd9szbJG3-72" vertex="1">
          <mxGeometry y="150" width="263" height="30" as="geometry" />
        </mxCell>
        <mxCell id="MjwxIHWWjt4pd9szbJG3-119" value="" style="endArrow=none;html=1;rounded=0;exitX=0.002;exitY=-0.108;exitDx=0;exitDy=0;exitPerimeter=0;" parent="MjwxIHWWjt4pd9szbJG3-72" source="MjwxIHWWjt4pd9szbJG3-116" edge="1">
          <mxGeometry width="50" height="50" relative="1" as="geometry">
            <mxPoint x="-9.5" y="98.24000000000001" as="sourcePoint" />
            <mxPoint x="262" y="147" as="targetPoint" />
          </mxGeometry>
        </mxCell>
        <mxCell id="MjwxIHWWjt4pd9szbJG3-118" value="+&amp;nbsp;editOrder(order: Order)" style="text;strokeColor=none;fillColor=none;align=left;verticalAlign=middle;spacingLeft=4;spacingRight=4;overflow=hidden;points=[[0,0.5],[1,0.5]];portConstraint=eastwest;rotatable=0;whiteSpace=wrap;html=1;" parent="MjwxIHWWjt4pd9szbJG3-72" vertex="1">
          <mxGeometry y="180" width="263" height="30" as="geometry" />
        </mxCell>
        <mxCell id="MjwxIHWWjt4pd9szbJG3-117" value="+&amp;nbsp;confirmOrder(order: Order)" style="text;strokeColor=none;fillColor=none;align=left;verticalAlign=middle;spacingLeft=4;spacingRight=4;overflow=hidden;points=[[0,0.5],[1,0.5]];portConstraint=eastwest;rotatable=0;whiteSpace=wrap;html=1;" parent="MjwxIHWWjt4pd9szbJG3-72" vertex="1">
          <mxGeometry y="210" width="263" height="30" as="geometry" />
        </mxCell>
        <mxCell id="MjwxIHWWjt4pd9szbJG3-121" value="+&amp;nbsp;viewUserInfo(user: User): string" style="text;strokeColor=none;fillColor=none;align=left;verticalAlign=middle;spacingLeft=4;spacingRight=4;overflow=hidden;points=[[0,0.5],[1,0.5]];portConstraint=eastwest;rotatable=0;whiteSpace=wrap;html=1;" parent="MjwxIHWWjt4pd9szbJG3-72" vertex="1">
          <mxGeometry y="240" width="263" height="30" as="geometry" />
        </mxCell>
        <mxCell id="MjwxIHWWjt4pd9szbJG3-122" value="+&amp;nbsp;answerChat(question: string): string" style="text;strokeColor=none;fillColor=none;align=left;verticalAlign=middle;spacingLeft=4;spacingRight=4;overflow=hidden;points=[[0,0.5],[1,0.5]];portConstraint=eastwest;rotatable=0;whiteSpace=wrap;html=1;" parent="MjwxIHWWjt4pd9szbJG3-72" vertex="1">
          <mxGeometry y="270" width="263" height="30" as="geometry" />
        </mxCell>
        <mxCell id="MjwxIHWWjt4pd9szbJG3-76" value="&amp;lt;&amp;lt;interface&amp;gt;&amp;gt;&lt;br&gt;Catalog" style="swimlane;fontStyle=0;childLayout=stackLayout;horizontal=1;startSize=39;horizontalStack=0;resizeParent=1;resizeParentMax=0;resizeLast=0;collapsible=1;marginBottom=0;whiteSpace=wrap;html=1;" parent="1" vertex="1">
          <mxGeometry x="685.5" y="572" width="349" height="153" as="geometry" />
        </mxCell>
        <mxCell id="MjwxIHWWjt4pd9szbJG3-77" value="+ viewCatalog(): List&amp;lt;Furniture&amp;gt;" style="text;strokeColor=none;fillColor=none;align=left;verticalAlign=middle;spacingLeft=4;spacingRight=4;overflow=hidden;points=[[0,0.5],[1,0.5]];portConstraint=eastwest;rotatable=0;whiteSpace=wrap;html=1;" parent="MjwxIHWWjt4pd9szbJG3-76" vertex="1">
          <mxGeometry y="39" width="349" height="38" as="geometry" />
        </mxCell>
        <mxCell id="MjwxIHWWjt4pd9szbJG3-78" value="+&amp;nbsp;viewProductDetails(product: Furniture): string" style="text;strokeColor=none;fillColor=none;align=left;verticalAlign=middle;spacingLeft=4;spacingRight=4;overflow=hidden;points=[[0,0.5],[1,0.5]];portConstraint=eastwest;rotatable=0;whiteSpace=wrap;html=1;" parent="MjwxIHWWjt4pd9szbJG3-76" vertex="1">
          <mxGeometry y="77" width="349" height="38" as="geometry" />
        </mxCell>
        <mxCell id="MjwxIHWWjt4pd9szbJG3-91" value="+ search(query: string): List&amp;lt;Furniture&amp;gt;" style="text;strokeColor=none;fillColor=none;align=left;verticalAlign=middle;spacingLeft=4;spacingRight=4;overflow=hidden;points=[[0,0.5],[1,0.5]];portConstraint=eastwest;rotatable=0;whiteSpace=wrap;html=1;" parent="MjwxIHWWjt4pd9szbJG3-76" vertex="1">
          <mxGeometry y="115" width="349" height="38" as="geometry" />
        </mxCell>
        <mxCell id="MjwxIHWWjt4pd9szbJG3-79" value="&amp;lt;&amp;lt;interface&amp;gt;&amp;gt;&lt;br&gt;ManageUser" style="swimlane;fontStyle=0;childLayout=stackLayout;horizontal=1;startSize=36;horizontalStack=0;resizeParent=1;resizeParentMax=0;resizeLast=0;collapsible=1;marginBottom=0;whiteSpace=wrap;html=1;" parent="1" vertex="1">
          <mxGeometry x="653" y="1193" width="260" height="188" as="geometry" />
        </mxCell>
        <mxCell id="MjwxIHWWjt4pd9szbJG3-80" value="+ viewCatalog(): List&amp;lt;Furniture&amp;gt;" style="text;strokeColor=none;fillColor=none;align=left;verticalAlign=middle;spacingLeft=4;spacingRight=4;overflow=hidden;points=[[0,0.5],[1,0.5]];portConstraint=eastwest;rotatable=0;whiteSpace=wrap;html=1;" parent="MjwxIHWWjt4pd9szbJG3-79" vertex="1">
          <mxGeometry y="36" width="260" height="32" as="geometry" />
        </mxCell>
        <mxCell id="MjwxIHWWjt4pd9szbJG3-138" value="+&amp;nbsp;answerChat(question: string): string" style="text;strokeColor=none;fillColor=none;align=left;verticalAlign=middle;spacingLeft=4;spacingRight=4;overflow=hidden;points=[[0,0.5],[1,0.5]];portConstraint=eastwest;rotatable=0;whiteSpace=wrap;html=1;" parent="MjwxIHWWjt4pd9szbJG3-79" vertex="1">
          <mxGeometry y="68" width="260" height="30" as="geometry" />
        </mxCell>
        <mxCell id="MjwxIHWWjt4pd9szbJG3-137" value="+&amp;nbsp;viewUserInfo(user: User): string" style="text;strokeColor=none;fillColor=none;align=left;verticalAlign=middle;spacingLeft=4;spacingRight=4;overflow=hidden;points=[[0,0.5],[1,0.5]];portConstraint=eastwest;rotatable=0;whiteSpace=wrap;html=1;" parent="MjwxIHWWjt4pd9szbJG3-79" vertex="1">
          <mxGeometry y="98" width="260" height="30" as="geometry" />
        </mxCell>
        <mxCell id="MjwxIHWWjt4pd9szbJG3-136" value="+&amp;nbsp;viewOrders(): List &amp;lt;Order&amp;gt;" style="text;strokeColor=none;fillColor=none;align=left;verticalAlign=middle;spacingLeft=4;spacingRight=4;overflow=hidden;points=[[0,0.5],[1,0.5]];portConstraint=eastwest;rotatable=0;whiteSpace=wrap;html=1;" parent="MjwxIHWWjt4pd9szbJG3-79" vertex="1">
          <mxGeometry y="128" width="260" height="30" as="geometry" />
        </mxCell>
        <mxCell id="MjwxIHWWjt4pd9szbJG3-139" value="+&amp;nbsp;editOrder(order: Order)" style="text;strokeColor=none;fillColor=none;align=left;verticalAlign=middle;spacingLeft=4;spacingRight=4;overflow=hidden;points=[[0,0.5],[1,0.5]];portConstraint=eastwest;rotatable=0;whiteSpace=wrap;html=1;" parent="MjwxIHWWjt4pd9szbJG3-79" vertex="1">
          <mxGeometry y="158" width="260" height="30" as="geometry" />
        </mxCell>
        <mxCell id="MjwxIHWWjt4pd9szbJG3-88" value="" style="edgeStyle=orthogonalEdgeStyle;rounded=0;orthogonalLoop=1;jettySize=auto;html=1;entryX=0;entryY=0.5;entryDx=0;entryDy=0;dashed=1;" parent="1" source="MjwxIHWWjt4pd9szbJG3-74" target="MjwxIHWWjt4pd9szbJG3-138" edge="1">
          <mxGeometry relative="1" as="geometry">
            <mxPoint x="676.0799999999999" y="1329.24" as="targetPoint" />
          </mxGeometry>
        </mxCell>
        <mxCell id="MjwxIHWWjt4pd9szbJG3-90" style="rounded=0;orthogonalLoop=1;jettySize=auto;html=1;dashed=1;" parent="1" source="MjwxIHWWjt4pd9szbJG3-9" target="MjwxIHWWjt4pd9szbJG3-76" edge="1">
          <mxGeometry relative="1" as="geometry">
            <mxPoint x="807.7950000000001" y="606.9999999999999" as="targetPoint" />
          </mxGeometry>
        </mxCell>
        <mxCell id="MjwxIHWWjt4pd9szbJG3-96" value="&amp;lt;&amp;lt;interface&amp;gt;&amp;gt;&lt;br&gt;Chat" style="swimlane;fontStyle=0;childLayout=stackLayout;horizontal=1;startSize=39;horizontalStack=0;resizeParent=1;resizeParentMax=0;resizeLast=0;collapsible=1;marginBottom=0;whiteSpace=wrap;html=1;" parent="1" vertex="1">
          <mxGeometry x="1111" y="610" width="260" height="115" as="geometry" />
        </mxCell>
        <mxCell id="MjwxIHWWjt4pd9szbJG3-97" value="+ onlineChat(): void" style="text;strokeColor=none;fillColor=none;align=left;verticalAlign=middle;spacingLeft=4;spacingRight=4;overflow=hidden;points=[[0,0.5],[1,0.5]];portConstraint=eastwest;rotatable=0;whiteSpace=wrap;html=1;" parent="MjwxIHWWjt4pd9szbJG3-96" vertex="1">
          <mxGeometry y="39" width="260" height="38" as="geometry" />
        </mxCell>
        <mxCell id="MjwxIHWWjt4pd9szbJG3-98" value="+&amp;nbsp;answerQuestions(): void" style="text;strokeColor=none;fillColor=none;align=left;verticalAlign=middle;spacingLeft=4;spacingRight=4;overflow=hidden;points=[[0,0.5],[1,0.5]];portConstraint=eastwest;rotatable=0;whiteSpace=wrap;html=1;" parent="MjwxIHWWjt4pd9szbJG3-96" vertex="1">
          <mxGeometry y="77" width="260" height="38" as="geometry" />
        </mxCell>
        <mxCell id="MjwxIHWWjt4pd9szbJG3-102" style="edgeStyle=orthogonalEdgeStyle;rounded=0;orthogonalLoop=1;jettySize=auto;html=1;entryX=1;entryY=0.5;entryDx=0;entryDy=0;dashed=1;" parent="1" source="MjwxIHWWjt4pd9szbJG3-97" target="MjwxIHWWjt4pd9szbJG3-78" edge="1">
          <mxGeometry relative="1" as="geometry" />
        </mxCell>
        <mxCell id="MjwxIHWWjt4pd9szbJG3-131" value="&lt;b&gt;...&lt;/b&gt;" style="text;html=1;align=center;verticalAlign=middle;resizable=0;points=[];autosize=1;strokeColor=none;fillColor=none;" parent="1" vertex="1">
          <mxGeometry x="414" y="1097" width="28" height="26" as="geometry" />
        </mxCell>
        <mxCell id="MjwxIHWWjt4pd9szbJG3-132" value="&lt;b&gt;1&lt;/b&gt;" style="text;html=1;align=center;verticalAlign=middle;resizable=0;points=[];autosize=1;strokeColor=none;fillColor=none;" parent="1" vertex="1">
          <mxGeometry x="418" y="1168" width="30" height="30" as="geometry" />
        </mxCell>
        <mxCell id="MjwxIHWWjt4pd9szbJG3-133" value="&lt;b&gt;...&lt;/b&gt;" style="text;html=1;align=center;verticalAlign=middle;resizable=0;points=[];autosize=1;strokeColor=none;fillColor=none;" parent="1" vertex="1">
          <mxGeometry x="567" y="875" width="28" height="26" as="geometry" />
        </mxCell>
        <mxCell id="MjwxIHWWjt4pd9szbJG3-146" style="edgeStyle=orthogonalEdgeStyle;rounded=0;orthogonalLoop=1;jettySize=auto;html=1;dashed=1;endArrow=open;endFill=0;entryX=0.499;entryY=0.029;entryDx=0;entryDy=0;entryPerimeter=0;" parent="1" source="MjwxIHWWjt4pd9szbJG3-145" target="MjwxIHWWjt4pd9szbJG3-147" edge="1">
          <mxGeometry relative="1" as="geometry">
            <mxPoint x="1309.363791725852" y="1217" as="targetPoint" />
          </mxGeometry>
        </mxCell>
        <mxCell id="MjwxIHWWjt4pd9szbJG3-145" value="&lt;font style=&quot;font-size: 22px;&quot;&gt;furniture shop&lt;/font&gt;" style="shape=folder;fontStyle=1;spacingTop=10;tabWidth=40;tabHeight=14;tabPosition=left;html=1;whiteSpace=wrap;" parent="1" vertex="1">
          <mxGeometry x="1727.25" y="1082" width="225.5" height="132" as="geometry" />
        </mxCell>
        <mxCell id="MjwxIHWWjt4pd9szbJG3-147" value="" style="shape=folder;fontStyle=1;spacingTop=10;tabWidth=40;tabHeight=14;tabPosition=left;html=1;whiteSpace=wrap;" parent="1" vertex="1">
          <mxGeometry x="1275" y="1268" width="1130" height="421" as="geometry" />
        </mxCell>
        <mxCell id="MjwxIHWWjt4pd9szbJG3-152" value="&lt;font style=&quot;font-size: 26px;&quot;&gt;Catalog&lt;/font&gt;" style="text;html=1;strokeColor=none;fillColor=none;align=center;verticalAlign=middle;whiteSpace=wrap;rounded=0;" parent="1" vertex="1">
          <mxGeometry x="1365" y="1293" width="141" height="30" as="geometry" />
        </mxCell>
        <mxCell id="MjwxIHWWjt4pd9szbJG3-237" value="Furniture" style="swimlane;fontStyle=0;childLayout=stackLayout;horizontal=1;startSize=30;horizontalStack=0;resizeParent=1;resizeParentMax=0;resizeLast=0;collapsible=1;marginBottom=0;whiteSpace=wrap;html=1;" parent="1" vertex="1">
          <mxGeometry x="1302" y="1390" width="270" height="180" as="geometry" />
        </mxCell>
        <mxCell id="MjwxIHWWjt4pd9szbJG3-238" value="+&amp;nbsp;productId: int" style="text;strokeColor=none;fillColor=none;align=left;verticalAlign=middle;spacingLeft=4;spacingRight=4;overflow=hidden;points=[[0,0.5],[1,0.5]];portConstraint=eastwest;rotatable=0;whiteSpace=wrap;html=1;" parent="MjwxIHWWjt4pd9szbJG3-237" vertex="1">
          <mxGeometry y="30" width="270" height="30" as="geometry" />
        </mxCell>
        <mxCell id="MjwxIHWWjt4pd9szbJG3-239" value="+ name: string" style="text;strokeColor=none;fillColor=none;align=left;verticalAlign=middle;spacingLeft=4;spacingRight=4;overflow=hidden;points=[[0,0.5],[1,0.5]];portConstraint=eastwest;rotatable=0;whiteSpace=wrap;html=1;" parent="MjwxIHWWjt4pd9szbJG3-237" vertex="1">
          <mxGeometry y="60" width="270" height="30" as="geometry" />
        </mxCell>
        <mxCell id="MjwxIHWWjt4pd9szbJG3-240" value="+&amp;nbsp;price: double" style="text;strokeColor=none;fillColor=none;align=left;verticalAlign=middle;spacingLeft=4;spacingRight=4;overflow=hidden;points=[[0,0.5],[1,0.5]];portConstraint=eastwest;rotatable=0;whiteSpace=wrap;html=1;" parent="MjwxIHWWjt4pd9szbJG3-237" vertex="1">
          <mxGeometry y="90" width="270" height="30" as="geometry" />
        </mxCell>
        <mxCell id="MjwxIHWWjt4pd9szbJG3-241" value="+&amp;nbsp;stockQuantity: int" style="text;strokeColor=none;fillColor=none;align=left;verticalAlign=middle;spacingLeft=4;spacingRight=4;overflow=hidden;points=[[0,0.5],[1,0.5]];portConstraint=eastwest;rotatable=0;whiteSpace=wrap;html=1;" parent="MjwxIHWWjt4pd9szbJG3-237" vertex="1">
          <mxGeometry y="120" width="270" height="30" as="geometry" />
        </mxCell>
        <mxCell id="MjwxIHWWjt4pd9szbJG3-242" value="+&amp;nbsp;description: string" style="text;strokeColor=none;fillColor=none;align=left;verticalAlign=middle;spacingLeft=4;spacingRight=4;overflow=hidden;points=[[0,0.5],[1,0.5]];portConstraint=eastwest;rotatable=0;whiteSpace=wrap;html=1;" parent="MjwxIHWWjt4pd9szbJG3-237" vertex="1">
          <mxGeometry y="150" width="270" height="30" as="geometry" />
        </mxCell>
        <mxCell id="MjwxIHWWjt4pd9szbJG3-243" value="User" style="swimlane;fontStyle=0;childLayout=stackLayout;horizontal=1;startSize=30;horizontalStack=0;resizeParent=1;resizeParentMax=0;resizeLast=0;collapsible=1;marginBottom=0;whiteSpace=wrap;html=1;" parent="1" vertex="1">
          <mxGeometry x="2063" y="1360" width="260" height="240" as="geometry" />
        </mxCell>
        <mxCell id="MjwxIHWWjt4pd9szbJG3-244" value="+ userID: int" style="text;strokeColor=none;fillColor=none;align=left;verticalAlign=middle;spacingLeft=4;spacingRight=4;overflow=hidden;points=[[0,0.5],[1,0.5]];portConstraint=eastwest;rotatable=0;whiteSpace=wrap;html=1;" parent="MjwxIHWWjt4pd9szbJG3-243" vertex="1">
          <mxGeometry y="30" width="260" height="30" as="geometry" />
        </mxCell>
        <mxCell id="MjwxIHWWjt4pd9szbJG3-245" value="+&amp;nbsp;name: string" style="text;strokeColor=none;fillColor=none;align=left;verticalAlign=middle;spacingLeft=4;spacingRight=4;overflow=hidden;points=[[0,0.5],[1,0.5]];portConstraint=eastwest;rotatable=0;whiteSpace=wrap;html=1;" parent="MjwxIHWWjt4pd9szbJG3-243" vertex="1">
          <mxGeometry y="60" width="260" height="30" as="geometry" />
        </mxCell>
        <mxCell id="MjwxIHWWjt4pd9szbJG3-246" value="+&amp;nbsp;email: string" style="text;strokeColor=none;fillColor=none;align=left;verticalAlign=middle;spacingLeft=4;spacingRight=4;overflow=hidden;points=[[0,0.5],[1,0.5]];portConstraint=eastwest;rotatable=0;whiteSpace=wrap;html=1;" parent="MjwxIHWWjt4pd9szbJG3-243" vertex="1">
          <mxGeometry y="90" width="260" height="30" as="geometry" />
        </mxCell>
        <mxCell id="MjwxIHWWjt4pd9szbJG3-247" value="+ password: string" style="text;strokeColor=none;fillColor=none;align=left;verticalAlign=middle;spacingLeft=4;spacingRight=4;overflow=hidden;points=[[0,0.5],[1,0.5]];portConstraint=eastwest;rotatable=0;whiteSpace=wrap;html=1;" parent="MjwxIHWWjt4pd9szbJG3-243" vertex="1">
          <mxGeometry y="120" width="260" height="30" as="geometry" />
        </mxCell>
        <mxCell id="MjwxIHWWjt4pd9szbJG3-248" value="+ orders: List&amp;lt;Order&amp;gt;" style="text;strokeColor=none;fillColor=none;align=left;verticalAlign=middle;spacingLeft=4;spacingRight=4;overflow=hidden;points=[[0,0.5],[1,0.5]];portConstraint=eastwest;rotatable=0;whiteSpace=wrap;html=1;" parent="MjwxIHWWjt4pd9szbJG3-243" vertex="1">
          <mxGeometry y="150" width="260" height="30" as="geometry" />
        </mxCell>
        <mxCell id="MjwxIHWWjt4pd9szbJG3-249" value="" style="endArrow=none;html=1;rounded=0;exitX=-0.001;exitY=0.997;exitDx=0;exitDy=0;exitPerimeter=0;" parent="MjwxIHWWjt4pd9szbJG3-243" source="MjwxIHWWjt4pd9szbJG3-248" edge="1">
          <mxGeometry width="50" height="50" relative="1" as="geometry">
            <mxPoint x="-4.5" y="115.48000000000002" as="sourcePoint" />
            <mxPoint x="262" y="180" as="targetPoint" />
          </mxGeometry>
        </mxCell>
        <mxCell id="MjwxIHWWjt4pd9szbJG3-250" value="+&amp;nbsp;placeOrder(cart: List &amp;lt;Furniture&amp;gt;):Order" style="text;strokeColor=none;fillColor=none;align=left;verticalAlign=middle;spacingLeft=4;spacingRight=4;overflow=hidden;points=[[0,0.5],[1,0.5]];portConstraint=eastwest;rotatable=0;whiteSpace=wrap;html=1;" parent="MjwxIHWWjt4pd9szbJG3-243" vertex="1">
          <mxGeometry y="180" width="260" height="30" as="geometry" />
        </mxCell>
        <mxCell id="MjwxIHWWjt4pd9szbJG3-251" value="+&amp;nbsp;viewOrders(): List&amp;lt;Order&amp;gt;" style="text;strokeColor=none;fillColor=none;align=left;verticalAlign=middle;spacingLeft=4;spacingRight=4;overflow=hidden;points=[[0,0.5],[1,0.5]];portConstraint=eastwest;rotatable=0;whiteSpace=wrap;html=1;" parent="MjwxIHWWjt4pd9szbJG3-243" vertex="1">
          <mxGeometry y="210" width="260" height="30" as="geometry" />
        </mxCell>
        <mxCell id="MjwxIHWWjt4pd9szbJG3-252" value="Order" style="swimlane;fontStyle=0;childLayout=stackLayout;horizontal=1;startSize=30;horizontalStack=0;resizeParent=1;resizeParentMax=0;resizeLast=0;collapsible=1;marginBottom=0;whiteSpace=wrap;html=1;" parent="1" vertex="1">
          <mxGeometry x="1691" y="1330" width="210.5" height="299" as="geometry" />
        </mxCell>
        <mxCell id="MjwxIHWWjt4pd9szbJG3-253" value="+ orderId: int" style="text;strokeColor=none;fillColor=none;align=left;verticalAlign=middle;spacingLeft=4;spacingRight=4;overflow=hidden;points=[[0,0.5],[1,0.5]];portConstraint=eastwest;rotatable=0;whiteSpace=wrap;html=1;" parent="MjwxIHWWjt4pd9szbJG3-252" vertex="1">
          <mxGeometry y="30" width="210.5" height="30" as="geometry" />
        </mxCell>
        <mxCell id="MjwxIHWWjt4pd9szbJG3-254" value="+ items: List &amp;lt;Furniture&amp;gt;" style="text;strokeColor=none;fillColor=none;align=left;verticalAlign=middle;spacingLeft=4;spacingRight=4;overflow=hidden;points=[[0,0.5],[1,0.5]];portConstraint=eastwest;rotatable=0;whiteSpace=wrap;html=1;" parent="MjwxIHWWjt4pd9szbJG3-252" vertex="1">
          <mxGeometry y="60" width="210.5" height="30" as="geometry" />
        </mxCell>
        <mxCell id="MjwxIHWWjt4pd9szbJG3-255" value="+ clientId: int" style="text;strokeColor=none;fillColor=none;align=left;verticalAlign=middle;spacingLeft=4;spacingRight=4;overflow=hidden;points=[[0,0.5],[1,0.5]];portConstraint=eastwest;rotatable=0;whiteSpace=wrap;html=1;" parent="MjwxIHWWjt4pd9szbJG3-252" vertex="1">
          <mxGeometry y="90" width="210.5" height="30" as="geometry" />
        </mxCell>
        <mxCell id="MjwxIHWWjt4pd9szbJG3-256" value="+ totalAmount: double" style="text;strokeColor=none;fillColor=none;align=left;verticalAlign=middle;spacingLeft=4;spacingRight=4;overflow=hidden;points=[[0,0.5],[1,0.5]];portConstraint=eastwest;rotatable=0;whiteSpace=wrap;html=1;" parent="MjwxIHWWjt4pd9szbJG3-252" vertex="1">
          <mxGeometry y="120" width="210.5" height="29" as="geometry" />
        </mxCell>
        <mxCell id="MjwxIHWWjt4pd9szbJG3-257" value="+ orderDate: date" style="text;strokeColor=none;fillColor=none;align=left;verticalAlign=middle;spacingLeft=4;spacingRight=4;overflow=hidden;points=[[0,0.5],[1,0.5]];portConstraint=eastwest;rotatable=0;whiteSpace=wrap;html=1;" parent="MjwxIHWWjt4pd9szbJG3-252" vertex="1">
          <mxGeometry y="149" width="210.5" height="30" as="geometry" />
        </mxCell>
        <mxCell id="MjwxIHWWjt4pd9szbJG3-258" value="+ status: string" style="text;strokeColor=none;fillColor=none;align=left;verticalAlign=middle;spacingLeft=4;spacingRight=4;overflow=hidden;points=[[0,0.5],[1,0.5]];portConstraint=eastwest;rotatable=0;whiteSpace=wrap;html=1;" parent="MjwxIHWWjt4pd9szbJG3-252" vertex="1">
          <mxGeometry y="179" width="210.5" height="30" as="geometry" />
        </mxCell>
        <mxCell id="MjwxIHWWjt4pd9szbJG3-259" value="+&amp;nbsp;getTotalPrice(): double" style="text;strokeColor=none;fillColor=none;align=left;verticalAlign=middle;spacingLeft=4;spacingRight=4;overflow=hidden;points=[[0,0.5],[1,0.5]];portConstraint=eastwest;rotatable=0;whiteSpace=wrap;html=1;" parent="MjwxIHWWjt4pd9szbJG3-252" vertex="1">
          <mxGeometry y="209" width="210.5" height="30" as="geometry" />
        </mxCell>
        <mxCell id="MjwxIHWWjt4pd9szbJG3-260" value="+&amp;nbsp;addItem(furniture: Furniture)" style="text;strokeColor=none;fillColor=none;align=left;verticalAlign=middle;spacingLeft=4;spacingRight=4;overflow=hidden;points=[[0,0.5],[1,0.5]];portConstraint=eastwest;rotatable=0;whiteSpace=wrap;html=1;" parent="MjwxIHWWjt4pd9szbJG3-252" vertex="1">
          <mxGeometry y="239" width="210.5" height="30" as="geometry" />
        </mxCell>
        <mxCell id="MjwxIHWWjt4pd9szbJG3-261" value="+&amp;nbsp;removeItem(furniture: Furniture)" style="text;strokeColor=none;fillColor=none;align=left;verticalAlign=middle;spacingLeft=4;spacingRight=4;overflow=hidden;points=[[0,0.5],[1,0.5]];portConstraint=eastwest;rotatable=0;whiteSpace=wrap;html=1;" parent="MjwxIHWWjt4pd9szbJG3-252" vertex="1">
          <mxGeometry y="269" width="210.5" height="30" as="geometry" />
        </mxCell>
        <mxCell id="MjwxIHWWjt4pd9szbJG3-262" value="" style="endArrow=none;html=1;rounded=0;entryX=1.006;entryY=-0.097;entryDx=0;entryDy=0;entryPerimeter=0;exitX=0.002;exitY=-0.108;exitDx=0;exitDy=0;exitPerimeter=0;" parent="MjwxIHWWjt4pd9szbJG3-252" source="MjwxIHWWjt4pd9szbJG3-259" target="MjwxIHWWjt4pd9szbJG3-259" edge="1">
          <mxGeometry width="50" height="50" relative="1" as="geometry">
            <mxPoint x="-6.5" y="211" as="sourcePoint" />
            <mxPoint x="168.5" y="152" as="targetPoint" />
          </mxGeometry>
        </mxCell>
        <mxCell id="MjwxIHWWjt4pd9szbJG3-263" style="edgeStyle=orthogonalEdgeStyle;rounded=0;orthogonalLoop=1;jettySize=auto;html=1;entryX=1;entryY=0.5;entryDx=0;entryDy=0;startArrow=classic;startFill=1;endArrow=none;endFill=0;exitX=0;exitY=0.5;exitDx=0;exitDy=0;" parent="1" source="MjwxIHWWjt4pd9szbJG3-245" target="MjwxIHWWjt4pd9szbJG3-255" edge="1">
          <mxGeometry relative="1" as="geometry">
            <Array as="points">
              <mxPoint x="2050" y="1435" />
            </Array>
            <mxPoint x="2043" y="1435" as="sourcePoint" />
            <mxPoint x="1961.0000000000002" y="1436" as="targetPoint" />
          </mxGeometry>
        </mxCell>
        <mxCell id="MjwxIHWWjt4pd9szbJG3-264" style="edgeStyle=orthogonalEdgeStyle;rounded=0;orthogonalLoop=1;jettySize=auto;html=1;entryX=0;entryY=0.5;entryDx=0;entryDy=0;exitX=1;exitY=0.5;exitDx=0;exitDy=0;startArrow=classic;startFill=1;endArrow=none;endFill=0;" parent="1" source="MjwxIHWWjt4pd9szbJG3-239" target="MjwxIHWWjt4pd9szbJG3-256" edge="1">
          <mxGeometry relative="1" as="geometry">
            <Array as="points" />
            <mxPoint x="1608" y="1435" as="sourcePoint" />
            <mxPoint x="1698" y="1436" as="targetPoint" />
          </mxGeometry>
        </mxCell>
        <mxCell id="MjwxIHWWjt4pd9szbJG3-265" value="&lt;b&gt;1&lt;/b&gt;" style="text;html=1;align=center;verticalAlign=middle;resizable=0;points=[];autosize=1;strokeColor=none;fillColor=none;" parent="1" vertex="1">
          <mxGeometry x="2013" y="1405" width="30" height="30" as="geometry" />
        </mxCell>
        <mxCell id="MjwxIHWWjt4pd9szbJG3-266" value="&lt;b&gt;...&lt;/b&gt;" style="text;html=1;align=center;verticalAlign=middle;resizable=0;points=[];autosize=1;strokeColor=none;fillColor=none;" parent="1" vertex="1">
          <mxGeometry x="1663" y="1435" width="28" height="26" as="geometry" />
        </mxCell>
        <mxCell id="MjwxIHWWjt4pd9szbJG3-267" value="&lt;b&gt;1&lt;/b&gt;" style="text;html=1;align=center;verticalAlign=middle;resizable=0;points=[];autosize=1;strokeColor=none;fillColor=none;" parent="1" vertex="1">
          <mxGeometry x="1579" y="1435" width="30" height="30" as="geometry" />
        </mxCell>
        <mxCell id="MjwxIHWWjt4pd9szbJG3-277" value="&lt;b&gt;...&lt;/b&gt;" style="text;html=1;align=center;verticalAlign=middle;resizable=0;points=[];autosize=1;strokeColor=none;fillColor=none;" parent="1" vertex="1">
          <mxGeometry x="1751" y="1634" width="28" height="26" as="geometry" />
        </mxCell>
        <mxCell id="MjwxIHWWjt4pd9szbJG3-278" value="&lt;b&gt;...&lt;/b&gt;" style="text;html=1;align=center;verticalAlign=middle;resizable=0;points=[];autosize=1;strokeColor=none;fillColor=none;" parent="1" vertex="1">
          <mxGeometry x="1900" y="1407" width="28" height="26" as="geometry" />
        </mxCell>
        <mxCell id="MjwxIHWWjt4pd9szbJG3-279" value="" style="shape=folder;fontStyle=1;spacingTop=10;tabWidth=40;tabHeight=14;tabPosition=left;html=1;whiteSpace=wrap;" parent="1" vertex="1">
          <mxGeometry x="1464" y="1814" width="558" height="383" as="geometry" />
        </mxCell>
        <mxCell id="MjwxIHWWjt4pd9szbJG3-280" value="&lt;font style=&quot;font-size: 26px;&quot;&gt;Manager&lt;/font&gt;" style="text;html=1;strokeColor=none;fillColor=none;align=center;verticalAlign=middle;whiteSpace=wrap;rounded=0;" parent="1" vertex="1">
          <mxGeometry x="1489" y="1842" width="142" height="30" as="geometry" />
        </mxCell>
        <mxCell id="MjwxIHWWjt4pd9szbJG3-281" style="rounded=0;orthogonalLoop=1;jettySize=auto;html=1;entryX=0.459;entryY=1.141;entryDx=0;entryDy=0;entryPerimeter=0;exitX=0.5;exitY=0;exitDx=0;exitDy=0;" parent="1" source="MjwxIHWWjt4pd9szbJG3-282" target="MjwxIHWWjt4pd9szbJG3-261" edge="1">
          <mxGeometry relative="1" as="geometry">
            <mxPoint x="1804.5" y="1769" as="targetPoint" />
            <mxPoint x="1801" y="1941.35" as="sourcePoint" />
          </mxGeometry>
        </mxCell>
        <mxCell id="MjwxIHWWjt4pd9szbJG3-282" value="Manager" style="swimlane;fontStyle=0;childLayout=stackLayout;horizontal=1;startSize=30;horizontalStack=0;resizeParent=1;resizeParentMax=0;resizeLast=0;collapsible=1;marginBottom=0;whiteSpace=wrap;html=1;" parent="1" vertex="1">
          <mxGeometry x="1656" y="1875" width="263" height="300" as="geometry" />
        </mxCell>
        <mxCell id="MjwxIHWWjt4pd9szbJG3-283" value="+ managerId: int" style="text;strokeColor=none;fillColor=none;align=left;verticalAlign=middle;spacingLeft=4;spacingRight=4;overflow=hidden;points=[[0,0.5],[1,0.5]];portConstraint=eastwest;rotatable=0;whiteSpace=wrap;html=1;" parent="MjwxIHWWjt4pd9szbJG3-282" vertex="1">
          <mxGeometry y="30" width="263" height="30" as="geometry" />
        </mxCell>
        <mxCell id="MjwxIHWWjt4pd9szbJG3-284" value="+&amp;nbsp;name: string" style="text;strokeColor=none;fillColor=none;align=left;verticalAlign=middle;spacingLeft=4;spacingRight=4;overflow=hidden;points=[[0,0.5],[1,0.5]];portConstraint=eastwest;rotatable=0;whiteSpace=wrap;html=1;" parent="MjwxIHWWjt4pd9szbJG3-282" vertex="1">
          <mxGeometry y="60" width="263" height="30" as="geometry" />
        </mxCell>
        <mxCell id="MjwxIHWWjt4pd9szbJG3-285" value="+&amp;nbsp;email: string" style="text;strokeColor=none;fillColor=none;align=left;verticalAlign=middle;spacingLeft=4;spacingRight=4;overflow=hidden;points=[[0,0.5],[1,0.5]];portConstraint=eastwest;rotatable=0;whiteSpace=wrap;html=1;" parent="MjwxIHWWjt4pd9szbJG3-282" vertex="1">
          <mxGeometry y="90" width="263" height="30" as="geometry" />
        </mxCell>
        <mxCell id="MjwxIHWWjt4pd9szbJG3-286" value="+&amp;nbsp;password: string" style="text;strokeColor=none;fillColor=none;align=left;verticalAlign=middle;spacingLeft=4;spacingRight=4;overflow=hidden;points=[[0,0.5],[1,0.5]];portConstraint=eastwest;rotatable=0;whiteSpace=wrap;html=1;" parent="MjwxIHWWjt4pd9szbJG3-282" vertex="1">
          <mxGeometry y="120" width="263" height="30" as="geometry" />
        </mxCell>
        <mxCell id="MjwxIHWWjt4pd9szbJG3-287" value="+&amp;nbsp;viewOrders(): List &amp;lt;Order&amp;gt;" style="text;strokeColor=none;fillColor=none;align=left;verticalAlign=middle;spacingLeft=4;spacingRight=4;overflow=hidden;points=[[0,0.5],[1,0.5]];portConstraint=eastwest;rotatable=0;whiteSpace=wrap;html=1;" parent="MjwxIHWWjt4pd9szbJG3-282" vertex="1">
          <mxGeometry y="150" width="263" height="30" as="geometry" />
        </mxCell>
        <mxCell id="MjwxIHWWjt4pd9szbJG3-288" value="" style="endArrow=none;html=1;rounded=0;exitX=0.002;exitY=-0.108;exitDx=0;exitDy=0;exitPerimeter=0;" parent="MjwxIHWWjt4pd9szbJG3-282" source="MjwxIHWWjt4pd9szbJG3-287" edge="1">
          <mxGeometry width="50" height="50" relative="1" as="geometry">
            <mxPoint x="-9.5" y="98.24000000000001" as="sourcePoint" />
            <mxPoint x="262" y="147" as="targetPoint" />
          </mxGeometry>
        </mxCell>
        <mxCell id="MjwxIHWWjt4pd9szbJG3-289" value="+&amp;nbsp;editOrder(order: Order)" style="text;strokeColor=none;fillColor=none;align=left;verticalAlign=middle;spacingLeft=4;spacingRight=4;overflow=hidden;points=[[0,0.5],[1,0.5]];portConstraint=eastwest;rotatable=0;whiteSpace=wrap;html=1;" parent="MjwxIHWWjt4pd9szbJG3-282" vertex="1">
          <mxGeometry y="180" width="263" height="30" as="geometry" />
        </mxCell>
        <mxCell id="MjwxIHWWjt4pd9szbJG3-290" value="+&amp;nbsp;confirmOrder(order: Order)" style="text;strokeColor=none;fillColor=none;align=left;verticalAlign=middle;spacingLeft=4;spacingRight=4;overflow=hidden;points=[[0,0.5],[1,0.5]];portConstraint=eastwest;rotatable=0;whiteSpace=wrap;html=1;" parent="MjwxIHWWjt4pd9szbJG3-282" vertex="1">
          <mxGeometry y="210" width="263" height="30" as="geometry" />
        </mxCell>
        <mxCell id="MjwxIHWWjt4pd9szbJG3-291" value="+&amp;nbsp;viewUserInfo(user: User): string" style="text;strokeColor=none;fillColor=none;align=left;verticalAlign=middle;spacingLeft=4;spacingRight=4;overflow=hidden;points=[[0,0.5],[1,0.5]];portConstraint=eastwest;rotatable=0;whiteSpace=wrap;html=1;" parent="MjwxIHWWjt4pd9szbJG3-282" vertex="1">
          <mxGeometry y="240" width="263" height="30" as="geometry" />
        </mxCell>
        <mxCell id="MjwxIHWWjt4pd9szbJG3-292" value="+&amp;nbsp;answerChat(question: string): string" style="text;strokeColor=none;fillColor=none;align=left;verticalAlign=middle;spacingLeft=4;spacingRight=4;overflow=hidden;points=[[0,0.5],[1,0.5]];portConstraint=eastwest;rotatable=0;whiteSpace=wrap;html=1;" parent="MjwxIHWWjt4pd9szbJG3-282" vertex="1">
          <mxGeometry y="270" width="263" height="30" as="geometry" />
        </mxCell>
        <mxCell id="MjwxIHWWjt4pd9szbJG3-295" value="&lt;b&gt;1&lt;/b&gt;" style="text;html=1;align=center;verticalAlign=middle;resizable=0;points=[];autosize=1;strokeColor=none;fillColor=none;" parent="1" vertex="1">
          <mxGeometry x="1755" y="1849" width="30" height="30" as="geometry" />
        </mxCell>
        <mxCell id="5jegBXjlYdnnLJIy28yD-1" value="" style="shape=folder;fontStyle=1;spacingTop=10;tabWidth=40;tabHeight=14;tabPosition=left;html=1;whiteSpace=wrap;" vertex="1" parent="1">
          <mxGeometry x="2466" y="1286" width="439" height="731" as="geometry" />
        </mxCell>
        <mxCell id="5jegBXjlYdnnLJIy28yD-2" value="&lt;font style=&quot;font-size: 26px;&quot;&gt;Interfaces&lt;/font&gt;" style="text;html=1;strokeColor=none;fillColor=none;align=center;verticalAlign=middle;whiteSpace=wrap;rounded=0;" vertex="1" parent="1">
          <mxGeometry x="2614" y="1327" width="142" height="30" as="geometry" />
        </mxCell>
        <mxCell id="5jegBXjlYdnnLJIy28yD-17" value="&amp;lt;&amp;lt;interface&amp;gt;&amp;gt;&lt;br&gt;ManageUser" style="swimlane;fontStyle=0;childLayout=stackLayout;horizontal=1;startSize=36;horizontalStack=0;resizeParent=1;resizeParentMax=0;resizeLast=0;collapsible=1;marginBottom=0;whiteSpace=wrap;html=1;" vertex="1" parent="1">
          <mxGeometry x="2514" y="1785" width="260" height="188" as="geometry" />
        </mxCell>
        <mxCell id="5jegBXjlYdnnLJIy28yD-18" value="+ viewCatalog(): List&amp;lt;Furniture&amp;gt;" style="text;strokeColor=none;fillColor=none;align=left;verticalAlign=middle;spacingLeft=4;spacingRight=4;overflow=hidden;points=[[0,0.5],[1,0.5]];portConstraint=eastwest;rotatable=0;whiteSpace=wrap;html=1;" vertex="1" parent="5jegBXjlYdnnLJIy28yD-17">
          <mxGeometry y="36" width="260" height="32" as="geometry" />
        </mxCell>
        <mxCell id="5jegBXjlYdnnLJIy28yD-19" value="+&amp;nbsp;answerChat(question: string): string" style="text;strokeColor=none;fillColor=none;align=left;verticalAlign=middle;spacingLeft=4;spacingRight=4;overflow=hidden;points=[[0,0.5],[1,0.5]];portConstraint=eastwest;rotatable=0;whiteSpace=wrap;html=1;" vertex="1" parent="5jegBXjlYdnnLJIy28yD-17">
          <mxGeometry y="68" width="260" height="30" as="geometry" />
        </mxCell>
        <mxCell id="5jegBXjlYdnnLJIy28yD-20" value="+&amp;nbsp;viewUserInfo(user: User): string" style="text;strokeColor=none;fillColor=none;align=left;verticalAlign=middle;spacingLeft=4;spacingRight=4;overflow=hidden;points=[[0,0.5],[1,0.5]];portConstraint=eastwest;rotatable=0;whiteSpace=wrap;html=1;" vertex="1" parent="5jegBXjlYdnnLJIy28yD-17">
          <mxGeometry y="98" width="260" height="30" as="geometry" />
        </mxCell>
        <mxCell id="5jegBXjlYdnnLJIy28yD-21" value="+&amp;nbsp;viewOrders(): List &amp;lt;Order&amp;gt;" style="text;strokeColor=none;fillColor=none;align=left;verticalAlign=middle;spacingLeft=4;spacingRight=4;overflow=hidden;points=[[0,0.5],[1,0.5]];portConstraint=eastwest;rotatable=0;whiteSpace=wrap;html=1;" vertex="1" parent="5jegBXjlYdnnLJIy28yD-17">
          <mxGeometry y="128" width="260" height="30" as="geometry" />
        </mxCell>
        <mxCell id="5jegBXjlYdnnLJIy28yD-22" value="+&amp;nbsp;editOrder(order: Order)" style="text;strokeColor=none;fillColor=none;align=left;verticalAlign=middle;spacingLeft=4;spacingRight=4;overflow=hidden;points=[[0,0.5],[1,0.5]];portConstraint=eastwest;rotatable=0;whiteSpace=wrap;html=1;" vertex="1" parent="5jegBXjlYdnnLJIy28yD-17">
          <mxGeometry y="158" width="260" height="30" as="geometry" />
        </mxCell>
        <mxCell id="5jegBXjlYdnnLJIy28yD-23" value="&amp;lt;&amp;lt;interface&amp;gt;&amp;gt;&lt;br&gt;Catalog" style="swimlane;fontStyle=0;childLayout=stackLayout;horizontal=1;startSize=39;horizontalStack=0;resizeParent=1;resizeParentMax=0;resizeLast=0;collapsible=1;marginBottom=0;whiteSpace=wrap;html=1;" vertex="1" parent="1">
          <mxGeometry x="2490" y="1408" width="349" height="153" as="geometry" />
        </mxCell>
        <mxCell id="5jegBXjlYdnnLJIy28yD-24" value="+ viewCatalog(): List&amp;lt;Furniture&amp;gt;" style="text;strokeColor=none;fillColor=none;align=left;verticalAlign=middle;spacingLeft=4;spacingRight=4;overflow=hidden;points=[[0,0.5],[1,0.5]];portConstraint=eastwest;rotatable=0;whiteSpace=wrap;html=1;" vertex="1" parent="5jegBXjlYdnnLJIy28yD-23">
          <mxGeometry y="39" width="349" height="38" as="geometry" />
        </mxCell>
        <mxCell id="5jegBXjlYdnnLJIy28yD-25" value="+&amp;nbsp;viewProductDetails(product: Furniture): string" style="text;strokeColor=none;fillColor=none;align=left;verticalAlign=middle;spacingLeft=4;spacingRight=4;overflow=hidden;points=[[0,0.5],[1,0.5]];portConstraint=eastwest;rotatable=0;whiteSpace=wrap;html=1;" vertex="1" parent="5jegBXjlYdnnLJIy28yD-23">
          <mxGeometry y="77" width="349" height="38" as="geometry" />
        </mxCell>
        <mxCell id="5jegBXjlYdnnLJIy28yD-26" value="+ search(query: string): List&amp;lt;Furniture&amp;gt;" style="text;strokeColor=none;fillColor=none;align=left;verticalAlign=middle;spacingLeft=4;spacingRight=4;overflow=hidden;points=[[0,0.5],[1,0.5]];portConstraint=eastwest;rotatable=0;whiteSpace=wrap;html=1;" vertex="1" parent="5jegBXjlYdnnLJIy28yD-23">
          <mxGeometry y="115" width="349" height="38" as="geometry" />
        </mxCell>
        <mxCell id="5jegBXjlYdnnLJIy28yD-27" value="&amp;lt;&amp;lt;interface&amp;gt;&amp;gt;&lt;br&gt;Chat" style="swimlane;fontStyle=0;childLayout=stackLayout;horizontal=1;startSize=39;horizontalStack=0;resizeParent=1;resizeParentMax=0;resizeLast=0;collapsible=1;marginBottom=0;whiteSpace=wrap;html=1;" vertex="1" parent="1">
          <mxGeometry x="2523" y="1629" width="260" height="115" as="geometry" />
        </mxCell>
        <mxCell id="5jegBXjlYdnnLJIy28yD-28" value="+ onlineChat(): void" style="text;strokeColor=none;fillColor=none;align=left;verticalAlign=middle;spacingLeft=4;spacingRight=4;overflow=hidden;points=[[0,0.5],[1,0.5]];portConstraint=eastwest;rotatable=0;whiteSpace=wrap;html=1;" vertex="1" parent="5jegBXjlYdnnLJIy28yD-27">
          <mxGeometry y="39" width="260" height="38" as="geometry" />
        </mxCell>
        <mxCell id="5jegBXjlYdnnLJIy28yD-29" value="+&amp;nbsp;answerQuestions(): void" style="text;strokeColor=none;fillColor=none;align=left;verticalAlign=middle;spacingLeft=4;spacingRight=4;overflow=hidden;points=[[0,0.5],[1,0.5]];portConstraint=eastwest;rotatable=0;whiteSpace=wrap;html=1;" vertex="1" parent="5jegBXjlYdnnLJIy28yD-27">
          <mxGeometry y="77" width="260" height="38" as="geometry" />
        </mxCell>
        <mxCell id="5jegBXjlYdnnLJIy28yD-30" style="rounded=0;orthogonalLoop=1;jettySize=auto;html=1;entryX=0.464;entryY=1.163;entryDx=0;entryDy=0;dashed=1;entryPerimeter=0;exitX=0.5;exitY=0;exitDx=0;exitDy=0;" edge="1" parent="1" source="5jegBXjlYdnnLJIy28yD-27" target="5jegBXjlYdnnLJIy28yD-26">
          <mxGeometry relative="1" as="geometry" />
        </mxCell>
        <mxCell id="5jegBXjlYdnnLJIy28yD-32" style="rounded=0;orthogonalLoop=1;jettySize=auto;html=1;dashed=1;entryX=0;entryY=0.5;entryDx=0;entryDy=0;exitX=1;exitY=0.5;exitDx=0;exitDy=0;" edge="1" parent="1" source="MjwxIHWWjt4pd9szbJG3-246" target="5jegBXjlYdnnLJIy28yD-24">
          <mxGeometry relative="1" as="geometry">
            <mxPoint x="2455" y="1284" as="targetPoint" />
            <mxPoint x="2455" y="1387" as="sourcePoint" />
          </mxGeometry>
        </mxCell>
        <mxCell id="5jegBXjlYdnnLJIy28yD-34" value="" style="edgeStyle=orthogonalEdgeStyle;rounded=0;orthogonalLoop=1;jettySize=auto;html=1;dashed=1;entryX=0;entryY=0.5;entryDx=0;entryDy=0;exitX=1;exitY=0.5;exitDx=0;exitDy=0;" edge="1" parent="1" source="MjwxIHWWjt4pd9szbJG3-286" target="5jegBXjlYdnnLJIy28yD-19">
          <mxGeometry relative="1" as="geometry">
            <mxPoint x="1205" y="1640" as="targetPoint" />
            <mxPoint x="949" y="1620" as="sourcePoint" />
          </mxGeometry>
        </mxCell>
      </root>
    </mxGraphModel>
  </diagram>
</mxfile>
